<svg width="68" height="67" viewBox="0 0 68 67" fill="none" xmlns="http://www.w3.org/2000/svg">
<circle cx="33.604" cy="33.5" r="33.5" fill="#12454B" fill-opacity="0.63"/>
<path fill-rule="evenodd" clip-rule="evenodd" d="M46.4165 48.4376H20.7915C19.3757 48.4376 18.229 47.2908 18.229 45.8751V34.3438C18.229 32.928 19.3757 31.7813 20.7915 31.7813H27.6244V30.5001C27.6244 29.0843 28.7724 27.9376 30.1869 27.9376H37.0211V25.3751C37.0211 23.9593 38.1678 22.8126 39.5836 22.8126H46.4165C47.8323 22.8126 48.979 23.9593 48.979 25.3751V45.8751C48.979 47.2908 47.8323 48.4376 46.4165 48.4376ZM27.6244 34.3438H20.7915V45.8751H27.6244V34.3438ZM37.0211 30.5001H30.1869V45.8751H37.0211V30.5001ZM39.5836 45.8751H46.4165V25.3751H39.5836V29.2188V45.8751ZM37.4298 17.2032C32.6085 24.3116 23.6718 26.6166 23.6718 26.6166C22.9863 26.7921 22.288 26.3783 22.1125 25.6928C21.9369 25.0073 22.3508 24.3091 23.0363 24.1335C23.0363 24.1335 31.5463 21.9772 35.7065 15.1468L33.1863 15.1251C32.4791 15.1186 31.9102 14.5395 31.9166 13.8323C31.923 13.125 32.5021 12.5561 33.2094 12.5626L38.6931 12.6112C39.3927 12.6164 39.9577 13.1814 39.9628 13.881L40.0103 19.2379C40.0167 19.9451 39.4478 20.5242 38.7405 20.5306C38.0333 20.5371 37.4542 19.9682 37.4478 19.2609L37.4298 17.2032Z" fill="white"/>
</svg>
