<svg width="68" height="67" viewBox="0 0 68 67" fill="none" xmlns="http://www.w3.org/2000/svg">
<circle cx="33.604" cy="33.5" r="33.5" fill="#12454B" fill-opacity="0.63"/>
<path fill-rule="evenodd" clip-rule="evenodd" d="M22.2842 23.9918C21.6499 24.3352 20.9222 24.5312 20.1509 24.5312C17.6755 24.5312 15.6665 22.5223 15.6665 20.0469C15.6665 17.5715 17.6755 15.5625 20.1509 15.5625C22.6263 15.5625 24.6353 17.5715 24.6353 20.0469C24.6353 20.8182 24.4392 21.5459 24.0958 22.1802L26.4085 24.4915C28.3803 22.913 30.8826 21.9688 33.604 21.9688C36.3254 21.9688 38.8277 22.913 40.7995 24.4915L43.1122 22.1802C42.7688 21.5459 42.5728 20.8182 42.5728 20.0469C42.5728 17.5715 44.5818 15.5625 47.0571 15.5625C49.5325 15.5625 51.5415 17.5715 51.5415 20.0469C51.5415 22.5223 49.5325 24.5312 47.0571 24.5312C46.2858 24.5312 45.5581 24.3352 44.9238 23.9918L42.6125 26.3045C44.191 28.2763 45.1353 30.7786 45.1353 33.5C45.1353 36.2214 44.191 38.7237 42.6125 40.6968L44.9238 43.0082C45.5581 42.6648 46.2858 42.4688 47.0571 42.4688C49.5325 42.4688 51.5415 44.4778 51.5415 46.9531C51.5415 49.4285 49.5325 51.4375 47.0571 51.4375C44.5818 51.4375 42.5728 49.4285 42.5728 46.9531C42.5728 46.1818 42.7688 45.4541 43.1122 44.8198L40.8008 42.5085C38.8277 44.087 36.3254 45.0312 33.604 45.0312C30.8826 45.0312 28.3803 44.087 26.4072 42.5085L24.0958 44.8198C24.4392 45.4541 24.6353 46.1818 24.6353 46.9531C24.6353 49.4285 22.6263 51.4375 20.1509 51.4375C17.6755 51.4375 15.6665 49.4285 15.6665 46.9531C15.6665 44.4778 17.6755 42.4688 20.1509 42.4688C20.9222 42.4688 21.6499 42.6648 22.2842 43.0082L24.5955 40.6968C23.017 38.7237 22.0728 36.2214 22.0728 33.5C22.0728 30.7786 23.017 28.2763 24.5955 26.3045L22.2842 23.9918ZM40.9404 38.6558C41.9693 37.1977 42.5728 35.418 42.5728 33.5C42.5728 28.5505 38.5535 24.5312 33.604 24.5312C28.6545 24.5312 24.6353 28.5505 24.6353 33.5C24.6353 35.418 25.2387 37.1977 26.2676 38.6558C26.7403 37.3745 27.627 36.3277 28.7455 35.6461C29.167 35.3898 29.6988 35.3975 30.1126 35.6679C31.1171 36.3226 32.3163 36.7031 33.604 36.7031C34.8917 36.7031 36.0909 36.3226 37.0954 35.6679C37.5093 35.3975 38.041 35.3898 38.4625 35.6461C39.581 36.3277 40.4677 37.3745 40.9404 38.6558ZM28.2791 40.7147C29.7679 41.8166 31.6104 42.4688 33.604 42.4688C35.5976 42.4688 37.4401 41.8166 38.9289 40.7147L38.574 39.6474C38.3959 39.1132 38.0922 38.6468 37.7027 38.2752C36.474 38.9082 35.08 39.2656 33.604 39.2656C32.128 39.2656 30.734 38.9082 29.5053 38.2752C29.1158 38.6455 28.8134 39.1132 28.634 39.6474L28.2791 40.7147ZM20.1509 18.125C19.09 18.125 18.229 18.986 18.229 20.0469C18.229 21.1077 19.09 21.9688 20.1509 21.9688C21.2118 21.9688 22.0728 21.1077 22.0728 20.0469C22.0728 18.986 21.2118 18.125 20.1509 18.125ZM47.0571 45.0312C45.9963 45.0312 45.1353 45.8923 45.1353 46.9531C45.1353 48.014 45.9963 48.875 47.0571 48.875C48.118 48.875 48.979 48.014 48.979 46.9531C48.979 45.8923 48.118 45.0312 47.0571 45.0312ZM20.1509 45.0312C19.09 45.0312 18.229 45.8923 18.229 46.9531C18.229 48.014 19.09 48.875 20.1509 48.875C21.2118 48.875 22.0728 48.014 22.0728 46.9531C22.0728 45.8923 21.2118 45.0312 20.1509 45.0312ZM47.0571 18.125C45.9963 18.125 45.1353 18.986 45.1353 20.0469C45.1353 21.1077 45.9963 21.9688 47.0571 21.9688C48.118 21.9688 48.979 21.1077 48.979 20.0469C48.979 18.986 48.118 18.125 47.0571 18.125ZM33.604 25.8125C36.0794 25.8125 38.0884 27.8215 38.0884 30.2969C38.0884 32.7722 36.0794 34.7812 33.604 34.7812C31.1286 34.7812 29.1196 32.7722 29.1196 30.2969C29.1196 27.8215 31.1286 25.8125 33.604 25.8125ZM33.604 28.375C32.5431 28.375 31.6821 29.236 31.6821 30.2969C31.6821 31.3577 32.5431 32.2188 33.604 32.2188C34.6649 32.2188 35.5259 31.3577 35.5259 30.2969C35.5259 29.236 34.6649 28.375 33.604 28.375Z" fill="white"/>
</svg>
