<svg width="42" height="42" viewBox="0 0 42 42" fill="none" xmlns="http://www.w3.org/2000/svg">
<path d="M13.3899 3.43262H27.8099C33.3032 3.43262 37.7666 7.89595 37.7666 13.3893V27.8093C37.7666 30.45 36.7176 32.9825 34.8503 34.8497C32.9831 36.717 30.4506 37.766 27.8099 37.766H13.3899C7.89656 37.766 3.43323 33.3026 3.43323 27.8093V13.3893C3.43323 10.7486 4.48223 8.21609 6.34947 6.34886C8.21671 4.48162 10.7492 3.43262 13.3899 3.43262ZM13.0466 6.86595C11.4075 6.86595 9.83562 7.51706 8.67664 8.67603C7.51767 9.83501 6.86656 11.4069 6.86656 13.046V28.1526C6.86656 31.5688 9.63039 34.3326 13.0466 34.3326H28.1532C29.7923 34.3326 31.3642 33.6815 32.5232 32.5225C33.6821 31.3636 34.3332 29.7917 34.3332 28.1526V13.046C34.3332 9.62978 31.5694 6.86595 28.1532 6.86595H13.0466ZM29.6124 9.44095C30.1815 9.44095 30.7273 9.66703 31.1297 10.0695C31.5322 10.4719 31.7582 11.0177 31.7582 11.5868C31.7582 12.1559 31.5322 12.7017 31.1297 13.1041C30.7273 13.5065 30.1815 13.7326 29.6124 13.7326C29.0433 13.7326 28.4975 13.5065 28.0951 13.1041C27.6926 12.7017 27.4666 12.1559 27.4666 11.5868C27.4666 11.0177 27.6926 10.4719 28.0951 10.0695C28.4975 9.66703 29.0433 9.44095 29.6124 9.44095ZM20.5999 12.016C22.8763 12.016 25.0595 12.9203 26.6692 14.53C28.2789 16.1396 29.1832 18.3228 29.1832 20.5993C29.1832 22.8757 28.2789 25.0589 26.6692 26.6686C25.0595 28.2783 22.8763 29.1826 20.5999 29.1826C18.3235 29.1826 16.1402 28.2783 14.5306 26.6686C12.9209 25.0589 12.0166 22.8757 12.0166 20.5993C12.0166 18.3228 12.9209 16.1396 14.5306 14.53C16.1402 12.9203 18.3235 12.016 20.5999 12.016ZM20.5999 15.4493C19.234 15.4493 17.9241 15.9919 16.9583 16.9577C15.9925 17.9235 15.4499 19.2334 15.4499 20.5993C15.4499 21.9652 15.9925 23.2751 16.9583 24.2409C17.9241 25.2067 19.234 25.7493 20.5999 25.7493C21.9658 25.7493 23.2757 25.2067 24.2415 24.2409C25.2073 23.2751 25.7499 21.9652 25.7499 20.5993C25.7499 19.2334 25.2073 17.9235 24.2415 16.9577C23.2757 15.9919 21.9658 15.4493 20.5999 15.4493Z" fill="#00FFFF"/>
</svg>
