<svg width="534" height="134" viewBox="0 0 534 134" fill="none" xmlns="http://www.w3.org/2000/svg">
<path d="M333.894 8.53934C341.184 11.7529 344.554 19.0422 343.927 30.4072C343.457 38.8722 341.262 43.4966 335.854 46.7886C332.327 48.9832 331.465 49.14 322.764 49.4535L313.516 49.6886V6.18795L321.981 6.57985C328.094 6.81499 331.308 7.36365 333.894 8.53934ZM306.461 27.8991V55.8022H318.845C337.735 55.8022 343.457 53.3725 348.786 42.948C351.451 37.6966 351.53 37.2263 351.53 28.8397C351.53 17.4746 350.119 13.0854 344.554 7.59879C338.675 1.72032 335.54 0.779767 319.629 0.38787L306.461 -0.00402832V27.8991Z" fill="#15ECEC"/>
<path d="M371.516 27.9775V55.8023H389.152H406.787V53.059V50.3157H392.679H378.571V40.5183V30.7208H391.503H404.436V27.9775V25.2342H391.503H378.571V15.8287V6.42314H392.679H406.787V3.28795V0.152771H389.152H371.516V27.9775Z" fill="#15ECEC"/>
<path d="M459.302 27.9775V55.8023H462.829H466.356V27.9775V0.152771H462.829H459.302V27.9775Z" fill="#15ECEC"/>
<path d="M518.556 34.7965C518.948 36.0506 518.164 36.2074 509.935 36.2074C504.918 36.2074 500.843 35.9722 500.843 35.7371C500.843 35.4236 502.88 29.6235 505.31 22.8045L509.778 10.3421L513.932 21.8639C516.205 28.291 518.321 34.0911 518.556 34.7965ZM495.905 27.3505C490.418 42.3994 485.95 54.8617 485.95 55.1752C485.95 55.5671 487.675 55.8023 489.713 55.8023H493.553L495.905 48.9833L498.256 42.0858L509.621 41.8507L520.986 41.6156L523.494 48.7481L526.081 55.8023H530C532.9 55.8023 533.84 55.5671 533.605 54.705C533.448 54.1563 528.981 41.6156 523.573 26.8802L513.775 0.152771H505.937L495.905 27.3505Z" fill="#15ECEC"/>
<path d="M-0.00280762 0.779761C-0.00280762 1.17166 4.54321 13.634 10.1082 28.4478L20.2191 55.4103H29.3112L38.1681 31.8964C43.0276 18.9638 47.652 6.50146 48.5142 4.22846L50.0817 0.152722H41.9303L33.3869 23.745C27.43 40.1263 24.6084 46.9453 24.2949 45.9264C23.9813 45.0642 20.2975 34.9533 16.065 23.2747C11.9109 11.6745 8.22705 1.72032 8.07029 1.17166C7.60001 0.074345 -0.00280762 -0.317553 -0.00280762 0.779761Z" fill="#ECECEC"/>
<path d="M67.4036 27.9775V55.8023H70.9307H74.4578V27.9775V0.152771H70.9307H67.4036V27.9775Z" fill="#ECECEC"/>
<path d="M93.2687 0.779761C93.2687 1.17166 97.8147 13.634 103.38 28.4478L113.491 55.4103H122.583L131.44 31.8964C136.299 18.9638 140.924 6.50146 141.786 4.22846L143.353 0.152722H135.202L126.658 23.745C120.702 40.1263 117.88 46.9453 117.566 45.9264C117.253 45.0642 113.569 34.9533 109.337 23.2747C105.182 11.6745 101.499 1.72032 101.342 1.17166C100.872 0.074345 93.2687 -0.317553 93.2687 0.779761Z" fill="#ECECEC"/>
<path d="M160.675 27.9775V55.8023H178.311H195.946V53.059V50.3157H181.838H167.73V40.5183V30.7208H180.662H193.595V27.9775V25.2342H180.662H167.73V15.8287V6.42314H181.838H195.946V3.28795V0.152771H178.311H160.675V27.9775Z" fill="#ECECEC"/>
<path d="M240.309 7.91236C247.52 11.2043 247.833 21.2369 240.858 25.7829C239.368 26.8018 236.704 27.2721 231.06 27.4289L223.379 27.7424V6.42314H230.276C235.214 6.42314 237.958 6.89342 240.309 7.91236ZM216.325 27.9775V55.8023H223.379V33.0722H234.117L239.682 44.4372L245.247 55.8023H249.636C251.988 55.8023 253.947 55.6455 253.947 55.4104C253.947 55.1752 251.517 50.0806 248.46 44.0453C245.482 38.0101 242.974 32.9154 242.974 32.7587C242.974 32.5235 244.385 31.583 246.109 30.6424C251.909 27.3505 254.652 20.1396 253.085 12.5367C252.379 9.32318 251.439 7.67722 248.852 5.16907C244.541 0.936574 241.014 0.152771 227.376 0.152771H216.325V27.9775Z" fill="#ECECEC"/>
<path d="M10.9625 106.561C10.3198 109.994 10.2571 110.378 10.2649 111.742C10.2649 114.07 11.2446 115.621 13.1884 116.586C14.8109 117.291 17.3974 117.55 23.417 117.534C34.4842 117.51 37.3921 116.397 38.9988 111.734H43.7251C42.957 114.446 41.797 116.319 39.8532 117.879C36.6866 120.473 32.2268 121.39 22.6489 121.414C14.8814 121.429 10.3511 120.732 8.34459 119.18C6.40078 117.761 5.49157 115.559 5.48373 112.455C5.47589 108.505 7.07484 101.388 8.75216 97.9469C11.8403 91.7235 16.3707 89.9051 28.9271 89.8738C36.6318 89.8581 41.1621 90.5557 43.1686 92.1076C45.1124 93.5263 46.0217 95.7209 46.0295 98.8326C46.0295 100.706 45.716 102.65 44.8851 106.475L10.9781 106.553L10.9625 106.561ZM40.7859 102.736C41.17 101.247 41.2327 100.533 41.2327 99.5615C41.2327 97.9469 40.6448 96.4577 39.5397 95.4858C37.9799 94.1925 35.3307 93.7457 28.2138 93.7614C18.8318 93.7849 16.0493 94.5687 13.7293 97.8058C12.8279 99.0364 12.3733 100.204 11.7384 102.791L40.7937 102.72L40.7859 102.736Z" fill="#15ECEC"/>
<path d="M76.9029 104.789L65.0911 90.2578L71.0479 90.2421L80.8454 102.258L95.6356 90.1873L101.655 90.1716L83.7611 104.774L97.454 120.795L91.309 120.81L79.7559 107.313L62.5124 120.881L56.3674 120.896L76.9107 104.797L76.9029 104.789Z" fill="#15ECEC"/>
<path d="M124.88 90.1168L123.986 94.6471C126.698 90.8222 130.445 89.6465 140.156 89.623C148.119 89.6073 152.579 90.3049 154.593 91.8568C156.537 93.2755 157.446 95.4701 157.454 98.5818C157.462 102.532 155.863 109.649 154.186 113.082C151.098 119.368 146.63 121.124 133.823 121.155C123.79 121.179 120.553 120.019 119.448 116.209L115.733 133.688H111.14L120.294 90.1246H124.887L124.88 90.1168ZM123.226 99.8907C122.066 102.744 120.914 108.309 120.921 111.028C120.937 116.272 123.202 117.299 134.199 117.275C145.329 117.252 147.978 116.147 150.165 110.895C151.325 107.979 152.477 102.477 152.469 99.6947C152.454 94.5139 150.188 93.4871 139.192 93.5106C128.195 93.5341 125.413 94.6471 123.226 99.8907Z" fill="#15ECEC"/>
<path d="M181.611 106.161C180.968 109.594 180.905 109.978 180.913 111.342C180.913 113.67 181.893 115.222 183.837 116.186C185.459 116.891 188.046 117.15 194.065 117.134C205.132 117.111 208.04 115.998 209.647 111.334H214.373C213.605 114.046 212.445 115.919 210.501 117.479C207.335 120.073 202.875 120.99 193.297 121.014C185.53 121.03 180.999 120.332 178.993 118.78C177.049 117.362 176.14 115.159 176.132 112.055C176.124 108.105 177.723 100.988 179.4 97.5472C182.488 91.3238 187.019 89.5054 199.575 89.474C207.28 89.4584 211.81 90.156 213.817 91.7079C215.761 93.1265 216.67 95.3212 216.678 98.4328C216.678 100.306 216.364 102.25 215.533 106.075L181.626 106.153L181.611 106.161ZM211.434 102.336C211.818 100.847 211.881 100.134 211.881 99.1618C211.881 97.5472 211.293 96.0579 210.188 95.086C208.628 93.7928 205.979 93.346 198.862 93.3617C189.48 93.3852 186.697 94.169 184.377 97.4061C183.476 98.6366 183.021 99.8045 182.387 102.391L211.442 102.32L211.434 102.336Z" fill="#15ECEC"/>
<path d="M239.87 89.8425H244.463L243.186 95.8542C245.952 90.6028 248.994 89.3722 258.705 89.3487C267.115 89.3252 270.289 91.2611 270.305 96.3793C270.305 97.3512 270.054 99.4205 269.67 101.106L269.286 102.916H264.693L265.014 101.309C265.336 99.8829 265.524 98.331 265.524 97.555C265.524 94.3179 263.18 93.2206 256.393 93.2441C247.207 93.2676 243.193 95.7993 241.853 102.469L238.013 120.465H233.42L239.886 89.8503L239.87 89.8425Z" fill="#15ECEC"/>
<path d="M290.409 89.7249H295.002L288.536 120.34H283.943L290.409 89.7249ZM293.097 76.7766H297.69L296.538 82.3964H291.945L293.097 76.7766Z" fill="#15ECEC"/>
<path d="M317.56 105.84C316.925 109.273 316.855 109.657 316.863 111.021C316.863 113.348 317.842 114.9 319.786 115.864C321.409 116.57 323.995 116.829 330.015 116.813C341.082 116.789 343.99 115.676 345.597 111.013H350.323C349.555 113.725 348.395 115.598 346.451 117.158C343.284 119.752 338.825 120.669 329.247 120.693C321.479 120.708 316.949 120.011 314.942 118.459C312.998 117.04 312.089 114.838 312.081 111.734C312.074 107.784 313.673 100.667 315.35 97.2258C318.446 91.0024 322.968 89.184 335.525 89.1527C343.229 89.137 347.76 89.8346 349.766 91.3865C351.71 92.8052 352.619 94.9998 352.627 98.1115C352.627 99.9847 352.314 101.929 351.483 105.753L317.576 105.832L317.56 105.84ZM347.391 102.015C347.775 100.526 347.838 99.8123 347.838 98.8404C347.838 97.2258 347.25 95.7366 346.145 94.7646C344.585 93.4714 341.936 93.0246 334.819 93.0403C325.437 93.0638 322.655 93.8476 320.335 97.0847C319.433 98.3153 318.979 99.4831 318.344 102.07L347.399 101.999L347.391 102.015Z" fill="#15ECEC"/>
<path d="M375.827 89.5211H380.42L379.143 95.5955C382.239 90.0854 385.86 88.6511 396.857 88.6276C401.904 88.6119 404.044 88.8705 406.505 89.7719C409.358 90.7987 410.847 92.9306 410.855 96.105C410.855 97.0769 410.604 99.0834 410.22 100.769L406.192 120.066H401.528L405.557 101.043C405.878 99.5537 406.004 98.5818 406.004 97.8685C405.996 94.1141 403.276 92.9541 394.733 92.9776C383.799 93.0011 379.143 95.5406 377.732 102.14L373.954 120.136H369.361L375.827 89.5211Z" fill="#15ECEC"/>
<path d="M468.088 108.716C466.999 112.863 466.16 114.414 464.161 116.366C460.995 119.415 456.66 120.395 446.573 120.418C438.547 120.434 434.338 119.799 432.394 118.184C430.576 116.766 429.729 114.697 429.729 111.593C429.721 107.713 431.32 100.392 432.997 96.9593C436.023 90.6733 440.224 88.9176 452.78 88.8862C460.869 88.8705 465.078 89.5054 467.155 91.12C468.903 92.476 469.75 94.4825 469.757 97.069C469.757 97.9077 469.757 98.1037 469.444 100.047L464.459 100.063C464.647 98.9658 464.718 98.5112 464.71 97.8607C464.71 96.5047 464.255 95.3996 463.346 94.5609C461.786 93.2049 458.941 92.7582 451.762 92.7739C441.541 92.7974 439.08 93.8398 436.956 99.1539C435.733 102.195 434.643 107.705 434.651 110.676C434.651 112.62 435.114 113.842 436.086 114.814C437.575 116.17 439.973 116.554 447.223 116.539C455.829 116.515 458.549 115.927 460.807 113.591C461.967 112.361 462.547 111.193 463.056 108.732L468.104 108.716H468.088Z" fill="#15ECEC"/>
<path d="M492.934 105.424C492.299 108.857 492.229 109.241 492.237 110.605C492.237 112.933 493.216 114.485 495.16 115.449C496.783 116.154 499.369 116.413 505.389 116.397C516.456 116.374 519.364 115.261 520.97 110.597H525.697C524.929 113.309 523.769 115.183 521.825 116.742C518.658 119.337 514.198 120.254 504.62 120.277C496.853 120.293 492.323 119.595 490.316 118.043C488.372 116.625 487.463 114.422 487.455 111.318C487.448 107.368 489.046 100.251 490.724 96.8104C493.82 90.5871 498.342 88.7686 510.899 88.7373C518.603 88.7216 523.134 89.4192 525.14 90.9711C527.084 92.3898 527.993 94.5844 528.001 97.6961C528.001 99.5694 527.688 101.513 526.857 105.338L492.95 105.416L492.934 105.424ZM522.758 101.599C523.142 100.11 523.204 99.3969 523.204 98.425C523.204 96.8104 522.616 95.3212 521.511 94.3493C519.952 93.056 517.302 92.6093 510.185 92.6249C500.803 92.6484 498.021 93.4322 495.701 96.6693C494.8 97.8999 494.345 99.0677 493.71 101.654L522.765 101.584L522.758 101.599Z" fill="#15ECEC"/>
<path d="M10.9703 105.221C10.3276 108.654 10.2649 109.038 10.2649 110.402C10.2649 112.73 11.2368 114.282 13.1806 115.254C14.803 115.967 17.3896 116.218 23.4091 116.21C34.4763 116.194 37.3842 115.089 38.9988 110.433H43.7251C42.9491 113.145 41.7891 115.026 39.8531 116.578C36.6866 119.173 32.219 120.082 22.641 120.097C14.8736 120.105 10.3432 119.4 8.33672 117.848C6.39291 116.429 5.4837 114.227 5.4837 111.123C5.4837 107.173 7.09047 100.056 8.7678 96.6228C11.8638 90.4073 16.3941 88.5889 28.9505 88.5732C36.6552 88.5654 41.1856 89.2708 43.1921 90.8227C45.1359 92.2414 46.0451 94.4439 46.0451 97.5477C46.0451 99.421 45.7238 101.365 44.893 105.182L10.9859 105.221H10.9703ZM40.8015 101.435C41.1856 99.9461 41.2483 99.2328 41.2483 98.2609C41.2483 96.6463 40.6605 95.1571 39.5631 94.1852C38.0112 92.8919 35.3542 92.4452 28.2373 92.453C18.8553 92.4687 16.0728 93.2446 13.7449 96.4817C12.8435 97.7123 12.3889 98.8801 11.7462 101.467L40.8015 101.427V101.435Z" fill="#ECECEC"/>
<path d="M76.9107 103.52L65.1146 88.973H71.0714L80.861 100.989L95.6669 88.9338H101.687L83.7768 103.512L97.454 119.541H91.309L79.7716 106.036L62.5124 119.58H56.3674L76.9264 103.512L76.9107 103.52Z" fill="#ECECEC"/>
<path d="M124.911 88.9025L124.01 93.4328C126.721 89.6079 130.476 88.44 140.179 88.4322C148.143 88.4244 152.602 89.1298 154.617 90.6817C156.561 92.1004 157.47 94.3028 157.47 97.4067C157.47 101.357 155.863 108.474 154.186 111.907C151.09 118.185 146.622 119.941 133.807 119.956C123.774 119.972 120.537 118.812 119.432 114.995L115.701 132.474H111.108L120.31 88.9181H124.903L124.911 88.9025ZM123.241 98.6764C122.081 101.522 120.921 107.094 120.929 109.814C120.929 115.058 123.202 116.092 134.207 116.077C145.337 116.061 147.986 114.964 150.18 109.712C151.341 106.797 152.501 101.294 152.493 98.5118C152.493 93.3309 150.22 92.3042 139.215 92.312C128.085 92.3277 125.436 93.4328 123.241 98.6764Z" fill="#ECECEC"/>
<path d="M181.618 105.009C180.976 108.443 180.913 108.827 180.913 110.19C180.913 112.518 181.885 114.07 183.829 115.042C185.451 115.755 188.038 116.006 194.057 115.998C205.124 115.983 208.032 114.877 209.647 110.222H214.373C213.597 112.934 212.437 114.815 210.501 116.367C207.335 118.961 202.867 119.87 193.289 119.886C185.522 119.894 180.991 119.188 178.985 117.636C177.041 116.218 176.132 114.015 176.132 110.911C176.132 106.961 177.739 99.8443 179.416 96.4112C182.512 90.1957 187.042 88.3773 199.599 88.3617C207.303 88.3538 211.834 89.0592 213.84 90.6112C215.784 92.0298 216.693 94.2323 216.693 97.3361C216.693 99.2094 216.372 101.153 215.541 104.97L181.634 105.009H181.618ZM211.442 101.216C211.826 99.7267 211.889 99.0135 211.889 98.0415C211.889 96.4269 211.301 94.9377 210.203 93.9658C208.652 92.6725 205.994 92.2258 198.878 92.2336C189.496 92.2415 186.713 93.0252 184.385 96.2623C183.484 97.4929 183.029 98.6607 182.387 101.247L211.442 101.208V101.216Z" fill="#ECECEC"/>
<path d="M239.901 88.7536H244.494L243.209 94.7653C245.984 89.5217 249.025 88.2833 258.736 88.2754C267.146 88.2676 270.32 90.2036 270.328 95.3139C270.328 96.2858 270.07 98.3551 269.686 100.04L269.301 101.851H264.708L265.03 100.236C265.351 98.8097 265.547 97.2577 265.539 96.4818C265.539 93.2447 263.204 92.1474 256.408 92.1552C247.222 92.1709 243.209 94.6947 241.861 101.365L238.005 119.361H233.411L239.909 88.7457L239.901 88.7536Z" fill="#ECECEC"/>
<path d="M290.44 88.6909H295.033L288.536 119.306H283.943L290.44 88.6909ZM293.137 75.7426H297.73L296.57 81.3702H291.977L293.137 75.7426Z" fill="#ECECEC"/>
<path d="M317.568 104.837C316.925 108.27 316.862 108.654 316.862 110.018C316.862 112.346 317.834 113.898 319.778 114.87C321.393 115.583 323.987 115.834 330.007 115.826C341.074 115.81 343.982 114.705 345.596 110.049H350.323C349.547 112.761 348.387 114.642 346.451 116.194C343.284 118.789 338.817 119.698 329.239 119.713C321.471 119.721 316.941 119.016 314.934 117.464C312.991 116.045 312.081 113.843 312.081 110.739C312.081 106.789 313.688 99.6718 315.365 96.2388C318.461 90.0233 322.992 88.2049 335.548 88.1892C343.253 88.1813 347.783 88.8868 349.79 90.4387C351.734 91.8573 352.643 94.0598 352.643 97.1636C352.643 99.0369 352.321 100.981 351.491 104.798L317.584 104.837H317.568ZM347.399 101.043C347.783 99.5542 347.854 98.841 347.846 97.8691C347.846 96.2544 347.258 94.7652 346.161 93.7933C344.609 92.5001 341.952 92.0533 334.835 92.0611C325.453 92.069 322.67 92.8528 320.343 96.0898C319.441 97.3204 318.987 98.4883 318.344 101.075L347.399 101.036V101.043Z" fill="#ECECEC"/>
<path d="M375.859 88.5811H380.452L379.166 94.6634C382.262 89.1612 385.884 87.7268 396.888 87.719C401.936 87.719 404.075 87.9698 406.529 88.8711C409.374 89.9058 410.871 92.0377 410.871 95.2042C410.871 96.1761 410.612 98.1826 410.228 99.8678L406.176 119.157H401.512L405.565 100.134C405.886 98.6451 406.011 97.6732 406.011 96.9599C406.011 93.2055 403.292 92.0455 394.748 92.0534C383.814 92.069 379.159 94.6007 377.74 101.2L373.946 119.196H369.353L375.851 88.5811H375.859Z" fill="#ECECEC"/>
<path d="M468.096 107.878C466.999 112.024 466.16 113.576 464.153 115.52C460.987 118.569 456.652 119.541 446.557 119.557C438.531 119.565 434.322 118.922 432.378 117.307C430.568 115.889 429.721 113.811 429.713 110.708C429.713 106.828 431.32 99.5072 432.997 96.0742C436.031 89.796 440.24 88.0403 452.788 88.0246C460.877 88.0168 465.086 88.6595 467.155 90.2741C468.903 91.6301 469.75 93.6366 469.75 96.2231C469.75 97.0618 469.75 97.2577 469.428 99.2015H464.443C464.639 98.1042 464.702 97.6574 464.702 97.0069C464.702 95.6509 464.247 94.5458 463.338 93.7071C461.786 92.3512 458.933 91.8966 451.754 91.9122C441.533 91.9279 439.072 92.9625 436.94 98.2766C435.717 101.318 434.62 106.82 434.628 109.798C434.628 111.742 435.082 112.965 436.054 113.937C437.543 115.293 439.942 115.677 447.184 115.669C455.79 115.661 458.51 115.073 460.767 112.738C461.927 111.507 462.515 110.339 463.025 107.878H468.072H468.096Z" fill="#ECECEC"/>
<path d="M492.942 104.618C492.299 108.051 492.236 108.435 492.236 109.798C492.236 112.126 493.208 113.678 495.152 114.65C496.767 115.363 499.361 115.614 505.381 115.606C516.448 115.591 519.356 114.486 520.97 109.83H525.697C524.921 112.542 523.761 114.423 521.825 115.975C518.658 118.569 514.191 119.478 504.613 119.494C496.845 119.502 492.315 118.796 490.308 117.245C488.365 115.826 487.455 113.623 487.455 110.52C487.455 106.569 489.062 99.4523 490.739 96.0193C493.835 89.8038 498.366 87.9854 510.922 87.9697C518.627 87.9619 523.157 88.6673 525.164 90.2192C527.108 91.6379 528.017 93.8403 528.017 96.9442C528.017 98.8174 527.695 100.761 526.865 104.578L492.958 104.618H492.942ZM522.765 100.824C523.149 99.3348 523.22 98.6215 523.212 97.6574C523.212 96.0428 522.624 94.5536 521.527 93.5817C519.975 92.2884 517.318 91.8417 510.201 91.8495C500.819 91.8652 498.037 92.6411 495.709 95.8782C494.807 97.1088 494.353 98.2766 493.71 100.863L522.765 100.824Z" fill="#ECECEC"/>
</svg>
