<svg width="68" height="67" viewBox="0 0 68 67" fill="none" xmlns="http://www.w3.org/2000/svg">
<circle cx="33.604" cy="33.5" r="33.5" fill="#12454B" fill-opacity="0.63"/>
<path fill-rule="evenodd" clip-rule="evenodd" d="M24.2983 43.294C21.3656 44.023 18.1855 42.7674 16.5993 40.0191C14.6787 36.693 15.8177 32.4392 19.1439 30.5186L19.6846 30.206L19.691 30.2034C25.9896 26.566 29.8666 22.3686 31.909 17.619C32.0819 17.2167 32.4471 16.931 32.8789 16.8605C33.3106 16.79 33.7488 16.945 34.0397 17.2705C37.1493 20.7414 39.3786 23.8036 41.1711 27.099C41.9347 26.8542 42.7496 26.7223 43.594 26.7223C47.981 26.7223 51.5415 30.2829 51.5415 34.6699C51.5415 38.1472 49.3019 41.1069 46.1885 42.1831C45.7734 42.3266 40.3562 45.2504 40.3562 45.2504C39.9591 45.4631 39.4799 45.4529 39.0929 45.221C38.706 44.9903 38.469 44.5726 38.469 44.1216C38.469 44.1216 38.469 40.7417 38.4702 40.743C37.722 40.1113 37.0929 39.3439 36.6188 38.4803C34.6624 38.8326 32.6892 39.3977 30.6251 40.2625L33.203 44.7277C33.4785 45.2043 33.4183 45.8026 33.0544 46.2152L29.9602 49.7233C29.6873 50.032 29.2824 50.1909 28.8724 50.1499C28.4624 50.1089 28.096 49.8732 27.891 49.5157L24.2983 43.294ZM38.8892 28.2662C37.4427 25.6191 35.6963 23.1322 33.3978 20.43C31.4541 24.0739 28.4496 27.4244 24.1087 30.4392C26.119 32.7826 27.6591 35.3989 28.6687 38.3214C31.1287 37.199 33.4593 36.4777 35.763 36.0331C35.6874 35.5898 35.6464 35.135 35.6464 34.6699C35.6464 32.0433 36.9238 29.714 38.8892 28.2662ZM21.9383 31.8485C21.6231 32.042 21.3002 32.2329 20.9722 32.4225L20.9658 32.4251L20.4251 32.7377C18.3251 33.9511 17.6051 36.6379 18.8184 38.7378C20.0318 40.8391 22.7173 41.5591 24.8185 40.3458L25.3656 40.0306C25.6975 39.8384 26.0267 39.6539 26.3535 39.4771C25.4181 36.625 23.9216 34.0971 21.9383 31.8485ZM28.2946 41.3503C27.7551 41.627 27.2081 41.9256 26.652 42.2459L29.2183 46.6905L30.5239 45.2107L28.2946 41.3503ZM41.0315 41.9896C42.756 41.0761 45.0776 39.8551 45.3518 39.7615C47.462 39.0312 48.979 37.0261 48.979 34.6699C48.979 31.6974 46.5665 29.2848 43.594 29.2848C40.6227 29.2848 38.2089 31.6974 38.2089 34.6699C38.2089 36.4867 39.1109 38.0934 40.4908 39.0697C40.8303 39.3093 41.0315 39.6988 41.0315 40.1152V41.9896Z" fill="white"/>
</svg>
