<svg width="68" height="67" viewBox="0 0 68 67" fill="none" xmlns="http://www.w3.org/2000/svg">
<circle cx="33.604" cy="33.5" r="33.5" fill="#12454B" fill-opacity="0.63"/>
<path fill-rule="evenodd" clip-rule="evenodd" d="M30.2728 45.2663L26.8223 48.7167C26.4559 49.0832 25.905 49.1933 25.4258 48.9948C24.9479 48.7962 24.6353 48.3298 24.6353 47.8109V41.7288H19.5103C18.4904 41.7288 17.5128 41.3239 16.7927 40.6026C16.0714 39.8825 15.6665 38.9036 15.6665 37.885V24.0078C15.6665 22.9879 16.0714 22.0103 16.7927 21.2903C17.5128 20.5689 18.4904 20.1641 19.5103 20.1641H36.1665C37.1864 20.1641 38.164 20.5689 38.884 21.2903C39.6054 22.0103 40.0103 22.9879 40.0103 24.0078V25.9297H47.8938C48.8611 25.9297 49.7888 26.3141 50.4729 26.9983C51.1571 27.6824 51.5415 28.6101 51.5415 29.5774V42.3899C51.5415 43.3573 51.1571 44.2849 50.4729 44.9691C49.7888 45.6533 48.8611 46.0376 47.8938 46.0376H45.7605L39.3363 52.4605C38.9699 52.827 38.4189 52.9372 37.9398 52.7386C37.4618 52.54 37.1492 52.0723 37.1492 51.5547V46.0376H32.5149C31.6988 46.0376 30.9108 45.7634 30.2728 45.2663ZM37.4478 37.885V24.0078C37.4478 23.6683 37.3132 23.3416 37.0723 23.102C36.8328 22.8611 36.506 22.7266 36.1665 22.7266H19.5103C19.1707 22.7266 18.844 22.8611 18.6044 23.102C18.3635 23.3416 18.229 23.6683 18.229 24.0078V37.885C18.229 38.2246 18.3635 38.55 18.6044 38.7909C18.844 39.0305 19.1707 39.1663 19.5103 39.1663H25.9203C26.2676 39.1663 26.5994 39.3072 26.8403 39.5558C27.0824 39.8056 27.2118 40.1426 27.2003 40.4885C27.199 40.5526 27.1978 40.6179 27.1978 40.6846V44.7179L32.374 39.5417C32.6149 39.3008 32.9403 39.1663 33.2798 39.1663H36.1665C36.506 39.1663 36.8328 39.0305 37.0723 38.7909C37.3132 38.55 37.4478 38.2246 37.4478 37.885ZM32.1344 43.4059C32.2548 43.4508 32.3843 43.4751 32.5149 43.4751H38.4343C38.7803 43.4751 39.1134 43.6148 39.3543 43.8646C39.5951 44.1145 39.7258 44.4502 39.7143 44.7974C39.713 44.855 39.7117 44.9153 39.7117 44.9755V48.4618L44.3229 43.8493C44.5638 43.6097 44.8893 43.4751 45.2288 43.4751H47.8938C48.1821 43.4751 48.4575 43.3598 48.6613 43.1574C48.865 42.9537 48.979 42.6769 48.979 42.3899V29.5774C48.979 29.2891 48.865 29.0137 48.6613 28.8099C48.4575 28.6062 48.1821 28.4922 47.8938 28.4922H40.0103V37.885C40.0103 38.9036 39.6054 39.8825 38.884 40.6026C38.164 41.3239 37.1864 41.7288 36.1665 41.7288H33.8103L32.1344 43.4059ZM23.3271 29.6748C22.6198 29.6748 22.0458 29.1008 22.0458 28.3935C22.0458 27.6863 22.6198 27.1123 23.3271 27.1123H32.7827C33.49 27.1123 34.064 27.6863 34.064 28.3935C34.064 29.1008 33.49 29.6748 32.7827 29.6748H23.3271ZM23.3271 34.7998C22.6198 34.7998 22.0458 34.2258 22.0458 33.5185C22.0458 32.8113 22.6198 32.2373 23.3271 32.2373H29.4707C30.1779 32.2373 30.7519 32.8113 30.7519 33.5185C30.7519 34.2258 30.1779 34.7998 29.4707 34.7998H23.3271Z" fill="white"/>
</svg>
