<svg width="42" height="42" viewBox="0 0 42 42" fill="none" xmlns="http://www.w3.org/2000/svg">
<path d="M33.5018 8.42821C31.9277 6.83876 30.0531 5.57849 27.987 4.72083C25.921 3.86318 23.7049 3.4253 21.468 3.43271C12.095 3.43271 4.45582 11.0719 4.45582 20.4449C4.45582 23.449 5.24548 26.3674 6.72181 28.9424L4.31848 37.766L13.331 35.397C15.8201 36.7532 18.6183 37.4742 21.468 37.4742C30.841 37.4742 38.4802 29.835 38.4802 20.462C38.4802 15.9129 36.712 11.6384 33.5018 8.42821ZM21.468 34.5902C18.9273 34.5902 16.4381 33.9035 14.258 32.616L13.743 32.307L8.38698 33.7147L9.81181 28.496L9.46848 27.9639C8.05661 25.71 7.30707 23.1045 7.30548 20.4449C7.30548 12.6512 13.6571 6.29954 21.4508 6.29954C25.2275 6.29954 28.781 7.77588 31.4418 10.4539C32.7596 11.7652 33.8038 13.3251 34.514 15.0431C35.2242 16.7611 35.5862 18.603 35.579 20.462C35.6133 28.2557 29.2616 34.5902 21.468 34.5902ZM29.2273 24.0155C28.7981 23.8095 26.7038 22.7795 26.3261 22.625C25.9313 22.4877 25.6566 22.419 25.3648 22.831C25.073 23.2602 24.2661 24.2215 24.0258 24.4962C23.7855 24.788 23.528 24.8224 23.0988 24.5992C22.6696 24.3932 21.2963 23.9297 19.6826 22.4877C18.4123 21.3547 17.5711 19.9642 17.3136 19.535C17.0733 19.1059 17.2793 18.8827 17.5025 18.6595C17.6913 18.4707 17.9316 18.1617 18.1376 17.9214C18.3436 17.681 18.4295 17.4922 18.5668 17.2175C18.7041 16.9257 18.6355 16.6854 18.5325 16.4794C18.4295 16.2734 17.5711 14.179 17.2278 13.3207C16.8845 12.4967 16.524 12.5997 16.2665 12.5825H15.4425C15.1506 12.5825 14.7043 12.6855 14.3095 13.1147C13.9318 13.5439 12.8331 14.5739 12.8331 16.6682C12.8331 18.7625 14.361 20.7882 14.567 21.0629C14.773 21.3547 17.5711 25.6464 21.8285 27.4832C22.8413 27.9295 23.631 28.187 24.249 28.3759C25.2618 28.702 26.1888 28.6505 26.927 28.5475C27.751 28.4274 29.4505 27.5175 29.7938 26.5219C30.1543 25.5262 30.1543 24.685 30.0341 24.4962C29.914 24.3074 29.6565 24.2215 29.2273 24.0155Z" fill="#00FFFF"/>
</svg>
